<svg width="361.5" height="361.5" viewBox="0 0 346 346" fill="none" xmlns="http://www.w3.org/2000/svg">
<circle cx="173" cy="173" r="172.4" fill="white"/>
<path d="M324.523 192.665L282.097 207.211L306.879 247.078" stroke="#003333" stroke-width="2.96312"/>
<path d="M203.564 23.0566L207.076 64.7113" stroke="#003333" stroke-width="2.96312"/>
<line x1="98.0541" y1="85.5945" x2="73.541" y2="56.2326" stroke="#003333" stroke-width="2.96312"/>
<line x1="75.1295" y1="107.364" x2="39.3027" y2="98.4744" stroke="#003333" stroke-width="2.96312"/>
<path d="M18.783 165.996L60.4014 172.731" stroke="#003333" stroke-width="2.96312"/>
<path d="M287.103 68.6269C283.538 71.1435 282.688 76.0738 285.204 79.639C287.721 83.2043 292.651 84.0543 296.216 81.5377C299.782 79.0211 300.632 74.0907 298.115 70.5255C295.598 66.9603 290.668 66.1102 287.103 68.6269ZM305.959 97.45C302.394 99.9666 301.544 104.897 304.061 108.462C306.577 112.027 311.507 112.877 315.073 110.361C318.638 107.844 319.488 102.914 316.971 99.3486C314.455 95.7834 309.524 94.9334 305.959 97.45ZM269.167 105.926L267.97 105.053L266.144 107.557L269.239 107.406L269.167 105.926ZM290.463 74.2093L267.97 105.053L270.364 106.799L292.857 75.9552L290.463 74.2093ZM269.239 107.406L310.588 105.385L310.444 102.426L269.095 104.446L269.239 107.406Z" fill="#003333"/>
<path d="M206.906 320.897C205.795 316.676 201.474 314.155 197.254 315.266C193.033 316.376 190.512 320.697 191.623 324.918C192.733 329.138 197.054 331.659 201.275 330.549C205.495 329.439 208.016 325.117 206.906 320.897ZM154.916 320.897C153.806 316.676 149.485 314.155 145.264 315.266C141.044 316.376 138.523 320.697 139.633 324.918C140.743 329.138 145.065 331.659 149.285 330.549C153.506 329.439 156.027 325.117 154.916 320.897ZM173.184 284.938L174.405 284.1L173.18 282.316L171.96 284.103L173.184 284.938ZM200.485 322.068L174.405 284.1L171.963 285.777L198.043 323.746L200.485 322.068ZM171.96 284.103L146.051 322.072L148.499 323.742L174.408 285.773L171.96 284.103Z" fill="#003333"/>
<path d="M297.281 271.467C296.171 267.246 291.85 264.725 287.629 265.835C283.409 266.946 280.888 271.267 281.998 275.487C283.108 279.708 287.43 282.229 291.65 281.119C295.87 280.008 298.391 275.687 297.281 271.467ZM280.658 288.354C279.548 284.134 275.227 281.613 271.006 282.723C266.786 283.833 264.265 288.155 265.375 292.375C266.485 296.595 270.807 299.117 275.027 298.006C279.247 296.896 281.769 292.575 280.658 288.354ZM249.368 257.584L249.912 256.206L245.208 254.349L248.166 258.451L249.368 257.584ZM290.183 272.099L249.912 256.206L248.824 258.962L289.096 274.855L290.183 272.099ZM248.166 258.451L271.815 291.232L274.218 289.498L250.57 256.717L248.166 258.451Z" fill="#003333"/>
<path d="M146.334 24.8338C145.223 29.0542 140.902 31.5754 136.681 30.4651C132.461 29.3548 129.94 25.0334 131.05 20.813C132.161 16.5927 136.482 14.0715 140.702 15.1818C144.923 16.2921 147.444 20.6135 146.334 24.8338ZM110.065 38.0332C108.955 42.2536 104.634 44.7748 100.413 43.6645C96.1931 42.5542 93.6719 38.2328 94.7822 34.0124C95.8925 29.7921 100.214 27.2709 104.434 28.3812C108.655 29.4915 111.176 33.8129 110.065 38.0332ZM138.692 65.0992L140.173 65.0992L140.173 68.1859L137.765 66.2551L138.692 65.0992ZM140.173 22.8234L140.173 65.0992L137.21 65.0992L137.21 22.8234L140.173 22.8234ZM137.765 66.2551L101.497 37.1788L103.351 34.8669L139.619 63.9432L137.765 66.2551Z" fill="#003333"/>
<path d="M53.7662 255.439C52.6559 251.218 48.3345 248.697 44.1142 249.807C39.8938 250.918 37.3726 255.239 38.4829 259.46C39.5932 263.68 43.9146 266.201 48.1349 265.091C52.3553 263.98 54.8765 259.659 53.7662 255.439ZM35.7181 221.093C34.6078 216.873 30.2864 214.352 26.066 215.462C21.8457 216.573 19.3245 220.894 20.4348 225.114C21.5451 229.335 25.8665 231.856 30.0868 230.745C34.3072 229.635 36.8284 225.314 35.7181 221.093ZM63.2248 206.672L64.6289 207.145L65.734 203.863L62.5974 205.33L63.2248 206.672ZM47.5286 257.922L64.6289 207.145L61.8207 206.199L44.7205 256.976L47.5286 257.922ZM62.5974 205.33L27.449 221.762L28.7039 224.446L63.8523 208.014L62.5974 205.33Z" fill="#003333"/>
<path d="M26.4245 167.872C25.3142 172.092 20.9928 174.614 16.7725 173.503C12.5521 172.393 10.0309 168.072 11.1412 163.851C12.2515 159.631 16.5729 157.11 20.7933 158.22C25.0136 159.33 27.5348 163.652 26.4245 167.872ZM28.7142 199.523C27.6039 203.744 23.2825 206.265 19.0622 205.155C14.8418 204.044 12.3206 199.723 13.4309 195.503C14.5412 191.282 18.8626 188.761 23.0829 189.871C27.3033 190.982 29.8245 195.303 28.7142 199.523ZM63.2247 208.216L64.2468 207.143L68.3386 211.043L62.8601 209.652L63.2247 208.216ZM19.805 164.789L64.2468 207.143L62.2026 209.288L17.7607 166.934L19.805 164.789ZM62.8601 209.652L20.7079 198.949L21.4372 196.077L63.5893 206.78L62.8601 209.652Z" fill="#003333"/>
<path d="M248.217 83.437C247.622 83.998 247.594 84.9357 248.155 85.5313C248.716 86.1269 249.653 86.1549 250.249 85.5938L248.217 83.437ZM270.795 64.2033C273.788 67.3798 278.789 67.5291 281.965 64.5368C285.142 61.5444 285.291 56.5436 282.298 53.3671C279.306 50.1906 274.305 50.0413 271.129 53.0336C267.952 56.026 267.803 61.0268 270.795 64.2033ZM250.249 85.5938L277.563 59.8636L275.531 57.7068L248.217 83.437L250.249 85.5938Z" fill="#003333"/>
<path d="M207.272 282.906C206.677 282.345 206.649 281.407 207.21 280.812C207.771 280.216 208.709 280.188 209.304 280.749L207.272 282.906ZM229.851 302.14C232.843 298.963 237.844 298.814 241.02 301.806C244.197 304.799 244.346 309.799 241.354 312.976C238.361 316.152 233.36 316.302 230.184 313.309C227.007 310.317 226.858 305.316 229.851 302.14ZM209.304 280.749L236.618 306.479L234.586 308.636L207.272 282.906L209.304 280.749Z" fill="#003333"/>
<path d="M138.027 282.906C138.622 282.345 138.65 281.407 138.089 280.812C137.528 280.216 136.59 280.188 135.995 280.749L138.027 282.906ZM115.449 302.14C112.456 298.963 107.455 298.814 104.279 301.806C101.102 304.799 100.953 309.799 103.945 312.976C106.938 316.152 111.939 316.302 115.115 313.309C118.292 310.317 118.441 305.316 115.449 302.14ZM135.995 280.749L108.681 306.479L110.713 308.636L138.027 282.906L135.995 280.749Z" fill="#003333"/>
<path d="M280.066 136.668C279.294 136.938 278.887 137.783 279.157 138.556C279.428 139.328 280.273 139.735 281.045 139.465L280.066 136.668ZM311.853 127.235C313.356 131.332 317.896 133.434 321.993 131.931C326.09 130.427 328.192 125.887 326.689 121.791C325.185 117.694 320.645 115.591 316.549 117.095C312.452 118.598 310.349 123.138 311.853 127.235ZM281.045 139.465L319.76 125.911L318.781 123.114L280.066 136.668L281.045 139.465Z" fill="#003333"/>
<path d="M285.992 169.262C285.22 169.532 284.813 170.378 285.084 171.15C285.354 171.922 286.199 172.329 286.971 172.059L285.992 169.262ZM317.779 159.829C319.282 163.926 323.822 166.028 327.919 164.525C332.016 163.022 334.118 158.482 332.615 154.385C331.112 150.288 326.572 148.186 322.475 149.689C318.378 151.192 316.276 155.732 317.779 159.829ZM286.971 172.059L325.687 158.505L324.707 155.709L285.992 169.262L286.971 172.059Z" fill="#003333"/>
<path d="M63.5096 137.513C64.2818 137.783 64.6887 138.628 64.4184 139.401C64.148 140.173 63.3028 140.58 62.5305 140.309L63.5096 137.513ZM31.723 128.08C30.2196 132.177 25.6798 134.279 21.5829 132.776C17.4861 131.272 15.3836 126.732 16.887 122.636C18.3904 118.539 22.9302 116.436 27.0271 117.94C31.1239 119.443 33.2263 123.983 31.723 128.08ZM62.5305 140.309L23.8154 126.756L24.7945 123.959L63.5096 137.513L62.5305 140.309Z" fill="#003333"/>
<path d="M171.523 59.9841C171.591 60.7996 172.306 61.4063 173.122 61.3391C173.937 61.272 174.544 60.5564 174.477 59.741L171.523 59.9841ZM176.916 20.0603C178.419 15.9635 176.317 11.4236 172.22 9.92027C168.123 8.4169 163.583 10.5193 162.08 14.6162C160.577 18.713 162.679 23.2529 166.776 24.7563C170.873 26.2596 175.413 24.1572 176.916 20.0603ZM174.477 59.741L170.975 17.2167L168.022 17.4599L171.523 59.9841L174.477 59.741Z" fill="#003333"/>
<path d="M58.4195 180.765C62.6699 181.754 66.9172 179.11 67.9061 174.859C68.895 170.609 66.251 166.362 62.0005 165.373C57.7501 164.384 53.5027 167.028 52.5139 171.278C51.525 175.529 54.169 179.776 58.4195 180.765ZM73.7738 114.768C78.0243 115.757 82.2716 113.113 83.2605 108.862C84.2494 104.612 81.6053 100.365 77.3549 99.3758C73.1044 98.387 68.8571 101.031 67.8682 105.281C66.8793 109.532 69.5234 113.779 73.7738 114.768ZM61.6914 173.088C61.8995 157.057 62.8963 145.595 65.2263 135.725C67.5507 125.879 71.2176 117.552 76.847 107.813L74.2817 106.331C68.553 116.241 64.7514 124.84 62.3424 135.044C59.9391 145.224 58.9377 156.936 58.7285 173.05L61.6914 173.088Z" fill="#008080"/>
<path d="M99.8849 262.317C76.8886 239.853 69.0684 227.469 62.6658 205.694" stroke="#008080" stroke-width="2.96312" stroke-linecap="round"/>
<path d="M245.385 262.047C268.381 239.583 276.202 227.199 282.604 205.425" stroke="#008080" stroke-width="2.96312" stroke-linecap="round"/>
<path d="M214.72 279.851C214.788 275.487 211.306 271.895 206.943 271.827C202.579 271.759 198.987 275.241 198.919 279.604C198.851 283.967 202.333 287.56 206.696 287.628C211.06 287.696 214.652 284.214 214.72 279.851ZM146.969 278.793C147.037 274.429 143.555 270.837 139.192 270.769C134.828 270.701 131.236 274.183 131.168 278.546C131.099 282.91 134.581 286.502 138.945 286.57C143.308 286.638 146.901 283.156 146.969 278.793ZM206.525 278.275C190.812 281.461 179.398 282.909 169.259 282.718C159.144 282.527 150.231 280.703 139.522 277.259L138.615 280.08C149.512 283.584 158.721 285.483 169.203 285.68C179.661 285.878 191.32 284.381 207.114 281.179L206.525 278.275Z" fill="#008080"/>
<path d="M214.79 64.7969C214.858 69.1604 211.376 72.7529 207.012 72.821C202.649 72.8891 199.056 69.4071 198.988 65.0437C198.92 60.6802 202.402 57.0877 206.766 57.0196C211.129 56.9515 214.722 60.4335 214.79 64.7969ZM147.039 65.8548C147.107 70.2183 143.625 73.8108 139.261 73.8789C134.898 73.947 131.305 70.465 131.237 66.1016C131.169 61.7381 134.651 58.1456 139.014 58.0775C143.378 58.0094 146.97 61.4914 147.039 65.8548ZM206.595 66.3723C190.881 63.1872 179.468 61.7388 169.329 61.93C159.214 62.1208 150.3 63.9449 139.591 67.3886L138.684 64.5678C149.582 61.0633 158.79 59.1652 169.273 58.9674C179.731 58.7702 191.39 60.2669 207.183 63.4683L206.595 66.3723Z" fill="#008080"/>
<circle cx="173" cy="171.923" r="78.3881" fill="white" stroke="#FFCB60" stroke-width="4.84875"/>
<rect width="107.75" height="107.75" transform="translate(119.125 118.048)" fill="white"/>
<rect width="58.5017" height="66.0619" transform="translate(143.579 151.026)" fill="white"/>
<circle cx="172.84" cy="172.888" r="21.703" transform="rotate(0.422522 172.84 172.888)" fill="#FFCB60"/>
<path d="M173.044 158.8L173.695 184.702L187.534 162.797L175.146 185.554L198.084 173.504L175.977 187.018L201.867 188.051L175.965 188.702L197.869 202.541L175.113 190.153L187.163 213.09L173.648 190.984L172.616 216.874L171.965 190.972L158.126 212.876L170.513 190.119L147.576 202.17L169.682 188.655L143.793 187.623L169.695 186.972L147.79 173.133L170.547 185.52L158.497 162.583L172.011 184.689L173.044 158.8Z" fill="white"/>
<path d="M167.307 166.769L172.806 185.407L178.579 166.852L174.023 185.743L188.3 172.56L174.909 186.642L193.865 182.365L175.227 187.864L193.782 193.638L174.891 189.081L188.073 203.359L173.992 189.967L178.269 208.923L172.77 190.285L166.996 208.84L171.553 189.949L157.275 203.131L170.667 189.05L151.711 193.327L170.349 187.828L151.794 182.054L170.685 186.611L157.502 172.333L171.584 185.725L167.307 166.769Z" fill="white"/>
<circle cx="172.83" cy="187.837" r="11.615" transform="rotate(0.422522 172.83 187.837)" fill="white"/>
<path d="M120.403 133.565C123.581 133.536 125.618 133.512 126.877 133.494C126.525 133.43 131.115 133.432 126.877 133.494C127.078 133.531 128.887 133.589 134.861 133.671L162.062 130.109C173.016 132.345 179.089 134.054 189.806 137.839C191.212 137.386 197.486 146.654 205.339 157.393C206.142 158.591 206.327 162.579 206.487 171.825C206.409 173.135 205.482 172.698 202.32 169.913L199.068 157.347C193.151 152.589 188.802 149.345 187.23 147.017C181.25 144.974 177.701 143.976 170.959 142.508C168.811 142.857 167.358 143.386 163.829 145.591C165.869 149.233 169.037 151.343 173.583 155.069L182.955 159.737C184.494 161.155 184.526 162.108 183.97 163.925C183.208 165.783 182.542 166.135 181.234 166.413C165.932 162.14 156.862 159.416 139.733 153.356L120.403 157.347L120.403 133.565Z" fill="#008080"/>
<path d="M225.758 210.894C222.58 210.923 220.543 210.947 219.284 210.965C219.636 211.029 215.046 211.027 219.284 210.965C219.083 210.928 217.274 210.87 211.3 210.788L184.099 214.35C173.145 212.114 167.073 210.405 156.355 206.62C154.949 207.073 148.675 197.805 140.822 187.066C140.019 185.868 139.834 181.88 139.674 172.634C139.752 171.324 140.679 171.761 143.841 174.546L147.093 187.112C153.01 191.87 157.359 195.114 158.931 197.442C164.911 199.485 168.46 200.483 175.202 201.951C177.351 201.602 178.803 201.073 182.332 198.868C180.292 195.226 177.124 193.116 172.578 189.39L163.206 184.722C161.667 183.304 161.636 182.351 162.191 180.534C162.953 178.676 163.619 178.324 164.927 178.046C180.229 182.319 189.3 185.043 206.428 191.103L225.758 187.112L225.758 210.894Z" fill="#008080"/>
<path d="M105.029 152.056C106.441 147.927 104.239 143.435 100.11 142.022C95.9806 140.61 91.4883 142.812 90.0759 146.941C88.6635 151.07 90.8658 155.562 94.9949 156.975C99.1239 158.387 103.616 156.185 105.029 152.056ZM70.5714 140.269C71.9838 136.14 69.7815 131.648 65.6524 130.236C61.5233 128.823 57.0311 131.025 55.6187 135.155C54.2063 139.284 56.4086 143.776 60.5376 145.188C64.6667 146.601 69.159 144.398 70.5714 140.269ZM98.0318 148.097L63.5745 136.31L62.6155 139.114L97.0727 150.9L98.0318 148.097Z" fill="#FFCB60"/>
<path d="M286.042 179.688C281.792 180.676 277.545 178.032 276.556 173.782C275.567 169.532 278.211 165.284 282.461 164.295C286.712 163.306 290.959 165.95 291.948 170.201C292.937 174.451 290.293 178.699 286.042 179.688ZM270.688 113.691C266.438 114.68 262.19 112.036 261.201 107.785C260.213 103.535 262.857 99.2873 267.107 98.2984C271.357 97.3096 275.605 99.9536 276.594 104.204C277.583 108.454 274.939 112.702 270.688 113.691ZM282.77 172.011C282.562 155.979 281.566 144.517 279.236 134.648C276.911 124.802 273.244 116.475 267.615 106.736L270.18 105.253C275.909 115.164 279.711 123.763 282.119 133.967C284.523 144.147 285.524 155.859 285.733 171.972L282.77 172.011Z" fill="#008080"/>
<path d="M129.307 114.825C132.286 111.635 132.115 106.635 128.925 103.656C125.736 100.678 120.736 100.849 117.757 104.038C114.779 107.228 114.95 112.228 118.139 115.206C121.328 118.185 126.329 118.014 129.307 114.825ZM102.691 89.9684C105.67 86.779 105.499 81.7789 102.31 78.8003C99.1203 75.8217 94.1202 75.9926 91.1416 79.1821C88.163 82.3715 88.334 87.3716 91.5234 90.3502C94.7128 93.3288 99.7129 93.1578 102.691 89.9684ZM124.543 108.349L97.9278 83.4924L95.9053 85.658L122.521 110.514L124.543 108.349Z" fill="#FFCB60"/>
<path d="M129.307 227.877C132.286 231.067 132.115 236.067 128.925 239.045C125.736 242.024 120.736 241.853 117.757 238.663C114.779 235.474 114.95 230.474 118.139 227.495C121.328 224.517 126.329 224.688 129.307 227.877ZM97.9278 259.209C97.3298 259.768 96.3922 259.736 95.8337 259.138C95.2753 258.54 95.3073 257.602 95.9053 257.044L97.9278 259.209ZM124.543 234.353L97.9278 259.209L95.9053 257.044L122.521 232.187L124.543 234.353Z" fill="#FFCB60"/>
<path d="M216.401 227.877C213.422 231.067 213.593 236.067 216.783 239.045C219.972 242.024 224.972 241.853 227.951 238.663C230.929 235.474 230.758 230.474 227.569 227.495C224.38 224.517 219.379 224.688 216.401 227.877ZM243.017 252.733C240.038 255.923 240.209 260.923 243.398 263.901C246.588 266.88 251.588 266.709 254.566 263.52C257.545 260.33 257.374 255.33 254.185 252.351C250.995 249.373 245.995 249.544 243.017 252.733ZM221.165 234.353L247.78 259.209L249.803 257.044L223.187 232.187L221.165 234.353Z" fill="#FFCB60"/>
<path d="M172.851 243.147C168.487 243.163 164.963 246.714 164.979 251.078C164.995 255.442 168.545 258.967 172.909 258.951C177.273 258.935 180.798 255.384 180.782 251.02C180.766 246.656 177.215 243.131 172.851 243.147ZM172.971 275.812C168.607 275.828 165.083 279.378 165.099 283.742C165.115 288.106 168.665 291.631 173.029 291.615C177.393 291.599 180.918 288.048 180.902 283.684C180.886 279.32 177.335 275.796 172.971 275.812ZM171.399 251.055L171.519 283.719L174.482 283.708L174.362 251.044L171.399 251.055Z" fill="#FFCB60"/>
<path d="M172.971 53.0386C168.607 53.0546 165.082 56.6052 165.098 60.9692C165.114 65.3331 168.665 68.8578 173.029 68.8418C177.393 68.8258 180.918 65.2751 180.902 60.9112C180.886 56.5473 177.335 53.0226 172.971 53.0386ZM173.091 85.7027C168.727 85.7187 165.202 89.2694 165.218 93.6333C165.234 97.9973 168.785 101.522 173.149 101.506C177.513 101.49 181.037 97.9393 181.021 93.5753C181.005 89.2114 177.455 85.6867 173.091 85.7027ZM171.518 60.9456L171.638 93.6098L174.601 93.5989L174.482 60.9347L171.518 60.9456Z" fill="#FFCB60"/>
<path d="M216.67 114.825C213.692 111.635 213.863 106.635 217.052 103.656C220.242 100.678 225.242 100.849 228.22 104.038C231.199 107.228 231.028 112.228 227.838 115.206C224.649 118.185 219.649 118.014 216.67 114.825ZM243.286 89.9684C240.307 86.779 240.478 81.7789 243.668 78.8003C246.857 75.8217 251.857 75.9926 254.836 79.1821C257.815 82.3715 257.644 87.3716 254.454 90.3502C251.265 93.3288 246.265 93.1578 243.286 89.9684ZM221.434 108.349L248.05 83.4924L250.072 85.658L223.457 110.514L221.434 108.349Z" fill="#FFCB60"/>
<path d="M289.281 135.155C290.694 139.284 288.491 143.776 284.362 145.188C280.233 146.601 275.741 144.398 274.329 140.269C272.916 136.14 275.118 131.648 279.248 130.236C283.377 128.823 287.869 131.025 289.281 135.155ZM254.824 146.941C256.236 151.07 254.034 155.562 249.905 156.975C245.776 158.387 241.284 156.185 239.871 152.056C238.459 147.927 240.661 143.435 244.79 142.022C248.919 140.61 253.412 142.812 254.824 146.941ZM282.284 139.114L247.827 150.9L246.868 148.097L281.325 136.31L282.284 139.114Z" fill="#FFCB60"/>
<path d="M105.029 192.262C106.441 196.391 104.239 200.884 100.11 202.296C95.9806 203.708 91.4883 201.506 90.0759 197.377C88.6635 193.248 90.8658 188.756 94.9949 187.343C99.1239 185.931 103.616 188.133 105.029 192.262ZM70.5714 204.049C71.9838 208.178 69.7815 212.67 65.6524 214.083C61.5233 215.495 57.0311 213.293 55.6187 209.164C54.2063 205.034 56.4086 200.542 60.5376 199.13C64.6667 197.717 69.159 199.92 70.5714 204.049ZM98.0318 196.221L63.5745 208.008L62.6155 205.204L97.0727 193.418L98.0318 196.221Z" fill="#FFCB60"/>
<path d="M289.82 209.163C291.232 205.034 289.03 200.542 284.901 199.13C280.772 197.717 276.28 199.919 274.867 204.049C273.455 208.178 275.657 212.67 279.786 214.082C283.915 215.495 288.407 213.292 289.82 209.163ZM255.363 197.377C256.775 193.248 254.573 188.755 250.444 187.343C246.315 185.931 241.822 188.133 240.41 192.262C238.998 196.391 241.2 200.883 245.329 202.296C249.458 203.708 253.95 201.506 255.363 197.377ZM282.823 205.204L248.366 193.418L247.407 196.221L281.864 208.008L282.823 205.204Z" fill="#FFCB60"/>
<path d="M63.8898 289.201C66.8821 292.378 71.883 292.527 75.0595 289.535C78.236 286.542 78.3853 281.541 75.3929 278.365C72.4006 275.188 67.3998 275.039 64.2233 278.031C61.0468 281.024 60.8975 286.025 63.8898 289.201ZM91.2035 263.471C94.1959 266.647 99.1967 266.797 102.373 263.804C105.55 260.812 105.699 255.811 102.707 252.635C99.7143 249.458 94.7135 249.309 91.537 252.301C88.3605 255.294 88.2112 260.294 91.2035 263.471ZM70.6573 284.861L97.971 259.131L95.9392 256.974L68.6255 282.705L70.6573 284.861Z" fill="#003333"/>
<path d="M33.6258 102.349C37.064 105.037 42.0299 104.428 44.7175 100.99C47.4051 97.5519 46.7967 92.586 43.3585 89.8984C39.9203 87.2108 34.9544 87.8193 32.2668 91.2575C29.5792 94.6957 30.1877 99.6616 33.6258 102.349ZM67.6569 61.7779C71.095 64.4655 76.061 63.857 78.7485 60.4188C81.4361 56.9806 80.8277 52.0147 77.3895 49.3271C73.9513 46.6395 68.9854 47.248 66.2978 50.6862C63.6102 54.1244 64.2187 59.0903 67.6569 61.7779ZM39.8373 96.7448C47.8832 79.3157 58.194 68.6539 73.4366 56.719L71.6098 54.386C56.1519 66.4895 45.4587 77.498 37.147 95.5028L39.8373 96.7448Z" fill="#003333"/>
<path d="M196.762 17.9879C194.984 21.9732 196.774 26.6453 200.759 28.4234C204.744 30.2014 209.416 28.412 211.194 24.4267C212.972 20.4414 211.183 15.7693 207.198 13.9912C203.212 12.2132 198.54 14.0026 196.762 17.9879ZM244.824 36.7591C243.046 40.7444 244.835 45.4165 248.82 47.1946C252.806 48.9726 257.478 47.1832 259.256 43.1979C261.034 39.2126 259.244 34.5405 255.259 32.7624C251.274 30.9844 246.602 32.7738 244.824 36.7591ZM203.7 22.6626C222.834 26.3156 236.055 29.3835 251.128 41.1465L252.951 38.8105C237.285 26.5846 223.457 23.4181 204.256 19.752L203.7 22.6626Z" fill="#003333"/>
<path d="M327.776 185.109C323.677 183.61 319.14 185.718 317.641 189.816C316.143 193.915 318.25 198.452 322.349 199.951C326.447 201.45 330.985 199.342 332.483 195.243C333.982 191.145 331.874 186.607 327.776 185.109ZM309.593 239.926C305.494 238.428 300.957 240.536 299.458 244.634C297.96 248.733 300.067 253.27 304.166 254.769C308.265 256.267 312.802 254.16 314.301 250.061C315.799 245.962 313.691 241.425 309.593 239.926ZM323.591 192.353C321.278 211.615 316.37 230.633 305.651 246.519L308.108 248.176C319.198 231.739 324.193 212.193 326.533 192.706L323.591 192.353Z" fill="#003333"/>
</svg>
