<svg width="400" height="400" viewBox="0 0 400 400" fill="none" xmlns="http://www.w3.org/2000/svg">
<path d="M375.781 222.812L326.562 239.688L355.312 285.938" stroke="#003333" stroke-width="3.4375"/>
<path d="M235.457 26.0518L239.531 74.375" stroke="#003333" stroke-width="3.4375"/>
<line x1="113.056" y1="98.6015" x2="84.6181" y2="64.539" stroke="#003333" stroke-width="3.4375"/>
<line x1="86.4611" y1="123.856" x2="44.8986" y2="113.543" stroke="#003333" stroke-width="3.4375"/>
<path d="M21.0938 191.875L69.375 199.688" stroke="#003333" stroke-width="3.4375"/>
<path d="M332.37 78.9174C328.234 81.8369 327.248 87.5565 330.167 91.6925C333.087 95.8285 338.807 96.8146 342.943 93.8951C347.079 90.9756 348.065 85.256 345.145 81.12C342.226 76.984 336.506 75.9979 332.37 78.9174ZM354.245 112.355C350.109 115.274 349.123 120.994 352.042 125.13C354.962 129.266 360.682 130.252 364.818 127.333C368.954 124.413 369.94 118.693 367.02 114.557C364.101 110.421 358.381 109.435 354.245 112.355ZM311.563 122.187L310.174 121.175L308.055 124.08L311.646 123.904L311.563 122.187ZM336.268 85.3935L310.174 121.175L312.951 123.2L339.045 87.419L336.268 85.3935ZM311.646 123.904L359.615 121.56L359.447 118.127L311.479 120.471L311.646 123.904Z" fill="#003333"/>
<path d="M239.334 371.574C238.046 366.678 233.033 363.753 228.137 365.041C223.24 366.329 220.316 371.342 221.604 376.238C222.892 381.135 227.905 384.059 232.801 382.771C237.697 381.483 240.622 376.47 239.334 371.574ZM179.021 371.574C177.733 366.678 172.72 363.753 167.824 365.041C162.928 366.329 160.003 371.342 161.291 376.238C162.579 381.135 167.592 384.059 172.488 382.771C177.385 381.483 180.309 376.47 179.021 371.574ZM200.213 329.859L201.63 328.886L200.209 326.816L198.793 328.89L200.213 329.859ZM231.885 372.933L201.63 328.886L198.796 330.832L229.052 374.879L231.885 372.933ZM198.793 328.89L168.737 372.937L171.576 374.875L201.633 330.828L198.793 328.89Z" fill="#003333"/>
<path d="M344.178 314.23C342.89 309.334 337.876 306.409 332.98 307.698C328.084 308.986 325.16 313.999 326.448 318.895C327.736 323.791 332.749 326.716 337.645 325.428C342.541 324.139 345.466 319.126 344.178 314.23ZM324.893 333.822C323.605 328.926 318.592 326.001 313.696 327.289C308.8 328.577 305.875 333.59 307.163 338.486C308.451 343.382 313.465 346.307 318.361 345.019C323.257 343.731 326.182 338.718 324.893 333.822ZM288.594 298.125L289.225 296.526L283.767 294.373L287.2 299.131L288.594 298.125ZM335.944 314.964L289.225 296.526L287.963 299.724L334.682 318.161L335.944 314.964ZM287.2 299.131L314.635 337.159L317.422 335.148L289.988 297.119L287.2 299.131Z" fill="#003333"/>
<path d="M169.064 28.1136C167.776 33.0096 162.763 35.9344 157.867 34.6463C152.971 33.3583 150.046 28.3451 151.334 23.4491C152.622 18.5531 157.635 15.6282 162.531 16.9163C167.427 18.2044 170.352 23.2175 169.064 28.1136ZM126.99 43.4261C125.702 48.3221 120.689 51.2469 115.793 49.9589C110.897 48.6708 107.972 43.6576 109.26 38.7616C110.548 33.8656 115.561 30.9408 120.457 32.2288C125.353 33.5169 128.278 38.5301 126.99 43.4261ZM160.199 74.8251L161.918 74.8251L161.918 78.4059L159.124 76.1661L160.199 74.8251ZM161.918 25.7813L161.918 74.8251L158.48 74.8251L158.48 25.7813L161.918 25.7813ZM159.124 76.1661L117.05 42.4348L119.2 39.7528L161.274 73.4841L159.124 76.1661Z" fill="#003333"/>
<path d="M61.6775 295.637C60.3894 290.741 55.3763 287.816 50.4802 289.104C45.5842 290.392 42.6594 295.405 43.9475 300.301C45.2355 305.197 50.2487 308.122 55.1447 306.834C60.0407 305.546 62.9656 300.533 61.6775 295.637ZM40.74 255.793C39.4519 250.897 34.4388 247.972 29.5427 249.26C24.6467 250.548 21.7219 255.561 23.01 260.457C24.298 265.353 29.3112 268.278 34.2072 266.99C39.1032 265.702 42.0281 260.689 40.74 255.793ZM72.6504 239.062L74.2792 239.611L75.5612 235.804L71.9225 237.505L72.6504 239.062ZM54.4413 298.517L74.2792 239.611L71.0215 238.514L51.1836 297.42L54.4413 298.517ZM71.9225 237.505L31.1471 256.568L32.6029 259.682L73.3783 240.619L71.9225 237.505Z" fill="#003333"/>
<path d="M29.9593 194.051C28.6712 198.947 23.658 201.872 18.762 200.584C13.866 199.296 10.9412 194.282 12.2292 189.386C13.5173 184.49 18.5305 181.566 23.4265 182.854C28.3225 184.142 31.2473 189.155 29.9593 194.051ZM32.6155 230.769C31.3274 235.665 26.3143 238.59 21.4183 237.302C16.5222 236.014 13.5974 231.001 14.8855 226.105C16.1735 221.209 21.1867 218.284 26.0827 219.572C30.9788 220.86 33.9036 225.873 32.6155 230.769ZM72.6509 240.854L73.8367 239.609L78.5835 244.133L72.2279 242.519L72.6509 240.854ZM22.28 190.474L73.8367 239.609L71.4651 242.098L19.9085 192.963L22.28 190.474ZM72.2279 242.519L23.3275 230.103L24.1735 226.771L73.0739 239.188L72.2279 242.519Z" fill="#003333"/>
<path d="M287.259 96.0983C286.568 96.7492 286.536 97.837 287.186 98.5279C287.837 99.2188 288.925 99.2513 289.616 98.6004L287.259 96.0983ZM313.452 73.7855C316.923 77.4705 322.724 77.6437 326.409 74.1723C330.095 70.7009 330.268 64.8995 326.796 61.2145C323.325 57.5294 317.524 57.3562 313.838 60.8276C310.153 64.299 309.98 70.1004 313.452 73.7855ZM289.616 98.6004L321.303 68.751L318.945 66.2489L287.259 96.0983L289.616 98.6004Z" fill="#003333"/>
<path d="M239.759 327.501C239.068 326.85 239.036 325.762 239.686 325.071C240.337 324.381 241.425 324.348 242.116 324.999L239.759 327.501ZM265.952 349.814C269.423 346.129 275.224 345.956 278.909 349.427C282.595 352.898 282.768 358.7 279.296 362.385C275.825 366.07 270.024 366.243 266.338 362.772C262.653 359.3 262.48 353.499 265.952 349.814ZM242.116 324.999L273.803 354.848L271.445 357.35L239.759 327.501L242.116 324.999Z" fill="#003333"/>
<path d="M159.428 327.501C160.118 326.85 160.151 325.762 159.5 325.071C158.849 324.381 157.761 324.348 157.07 324.999L159.428 327.501ZM133.235 349.814C129.763 346.129 123.962 345.956 120.277 349.427C116.592 352.898 116.419 358.7 119.89 362.385C123.362 366.07 129.163 366.243 132.848 362.772C136.533 359.3 136.706 353.499 133.235 349.814ZM157.07 324.999L125.384 354.848L127.741 357.35L159.428 327.501L157.07 324.999Z" fill="#003333"/>
<path d="M324.207 157.851C323.311 158.165 322.839 159.145 323.152 160.041C323.466 160.937 324.446 161.409 325.342 161.095L324.207 157.851ZM361.082 146.908C362.826 151.66 368.093 154.099 372.845 152.355C377.598 150.611 380.037 145.345 378.293 140.592C376.549 135.839 371.282 133.4 366.53 135.144C361.777 136.888 359.338 142.155 361.082 146.908ZM325.342 161.095L370.255 145.372L369.12 142.128L324.207 157.851L325.342 161.095Z" fill="#003333"/>
<path d="M331.082 195.663C330.186 195.977 329.714 196.958 330.027 197.854C330.341 198.749 331.321 199.222 332.217 198.908L331.082 195.663ZM367.957 184.72C369.701 189.473 374.968 191.912 379.72 190.168C384.473 188.424 386.912 183.157 385.168 178.405C383.424 173.652 378.157 171.213 373.405 172.957C368.652 174.701 366.213 179.968 367.957 184.72ZM332.217 198.908L377.13 183.185L375.995 179.94L331.082 195.663L332.217 198.908Z" fill="#003333"/>
<path d="M72.981 158.831C73.8769 159.145 74.3489 160.126 74.0353 161.022C73.7217 161.917 72.7411 162.389 71.8452 162.076L72.981 158.831ZM36.1056 147.888C34.3616 152.641 29.0949 155.08 24.3422 153.336C19.5895 151.592 17.1505 146.325 18.8945 141.572C20.6385 136.82 25.9052 134.381 30.6579 136.125C35.4106 137.869 37.8497 143.135 36.1056 147.888ZM71.8452 162.076L26.9321 146.353L28.068 143.108L72.981 158.831L71.8452 162.076Z" fill="#003333"/>
<path d="M198.287 68.8911C198.365 69.8371 199.195 70.5409 200.141 70.463C201.087 70.385 201.791 69.555 201.713 68.6089L198.287 68.8911ZM204.543 22.5757C206.287 17.823 203.848 12.5564 199.095 10.8123C194.343 9.06827 189.076 11.5073 187.332 16.26C185.588 21.0127 188.027 26.2794 192.78 28.0234C197.532 29.7675 202.799 27.3285 204.543 22.5757ZM201.713 68.6089L197.65 19.2768L194.225 19.5589L198.287 68.8911L201.713 68.6089Z" fill="#003333"/>
<path d="M67.0758 209.008C72.0068 210.155 76.934 207.088 78.0812 202.157C79.2284 197.226 76.1611 192.299 71.2302 191.152C66.2993 190.004 61.372 193.072 60.2248 198.003C59.0776 202.933 62.1449 207.861 67.0758 209.008ZM84.8883 132.445C89.8193 133.593 94.7465 130.525 95.8937 125.594C97.0409 120.663 93.9736 115.736 89.0427 114.589C84.1118 113.442 79.1845 116.509 78.0373 121.44C76.8901 126.371 79.9574 131.298 84.8883 132.445ZM70.8716 200.102C71.1131 181.504 72.2693 168.207 74.9724 156.758C77.6689 145.335 81.9229 135.675 88.4536 124.377L85.4775 122.657C78.8317 134.154 74.4215 144.13 71.6269 155.968C68.8388 167.778 67.6771 181.365 67.4344 200.057L70.8716 200.102Z" fill="#008080"/>
<path d="M115.179 303.616C88.5011 277.555 79.429 263.189 72.0015 237.928" stroke="#008080" stroke-width="3.4375" stroke-linecap="round"/>
<path d="M283.973 303.303C310.651 277.243 319.723 262.876 327.151 237.616" stroke="#008080" stroke-width="3.4375" stroke-linecap="round"/>
<path d="M248.4 323.957C248.479 318.895 244.439 314.727 239.377 314.648C234.315 314.569 230.148 318.609 230.069 323.671C229.99 328.733 234.029 332.9 239.091 332.979C244.153 333.058 248.321 329.019 248.4 323.957ZM169.802 322.73C169.881 317.668 165.842 313.5 160.78 313.421C155.718 313.342 151.55 317.381 151.471 322.443C151.392 327.505 155.431 331.673 160.493 331.752C165.555 331.831 169.723 327.792 169.802 322.73ZM238.893 322.129C220.664 325.824 207.423 327.505 195.661 327.283C183.927 327.061 173.586 324.945 161.163 320.95L160.11 324.223C172.753 328.288 183.435 330.49 195.596 330.72C207.728 330.948 221.254 329.212 239.576 325.498L238.893 322.129Z" fill="#008080"/>
<path d="M248.48 74.4743C248.559 79.5363 244.519 83.704 239.457 83.783C234.395 83.862 230.228 79.8226 230.149 74.7606C230.07 69.6986 234.109 65.5309 239.171 65.4519C244.233 65.3729 248.401 69.4123 248.48 74.4743ZM169.882 75.7016C169.961 80.7636 165.922 84.9312 160.86 85.0103C155.798 85.0893 151.63 81.0498 151.551 75.9878C151.472 70.9259 155.511 66.7582 160.573 66.6792C165.635 66.6001 169.803 70.6396 169.882 75.7016ZM238.973 76.3019C220.744 72.6069 207.503 70.9266 195.741 71.1485C184.007 71.3698 173.666 73.4859 161.243 77.481L160.19 74.2085C172.833 70.143 183.515 67.941 195.676 67.7116C207.808 67.4827 221.334 69.2191 239.656 72.933L238.973 76.3019Z" fill="#008080"/>
<circle cx="200" cy="198.75" r="90.9375" fill="white" stroke="#FFCB60" stroke-width="5.625"/>
<rect width="125" height="125" transform="translate(137.5 136.25)" fill="white"/>
<rect width="67.8674" height="76.6379" transform="translate(165.869 174.508)" fill="white"/>
<circle cx="199.814" cy="199.87" r="25.1775" transform="rotate(0.422522 199.814 199.87)" fill="#FFCB60"/>
<path d="M200.051 183.526L200.805 213.575L216.86 188.164L202.49 214.564L229.099 200.584L203.454 216.262L233.487 217.46L203.439 218.215L228.85 234.27L202.45 219.899L216.43 246.508L200.752 220.863L199.554 250.897L198.799 220.849L182.744 246.26L197.115 219.86L170.506 233.839L196.151 218.161L166.117 216.963L196.165 216.208L170.754 200.154L197.154 214.524L183.175 187.915L198.853 213.56L200.051 183.526Z" fill="white"/>
<path d="M193.395 192.771L199.774 214.393L206.472 192.868L201.186 214.783L217.75 199.49L202.214 215.826L224.205 210.864L202.583 217.244L224.108 223.941L202.194 218.655L217.486 235.219L201.15 219.684L206.112 241.674L199.733 220.052L193.035 241.578L198.321 219.663L181.757 234.955L197.293 218.619L175.302 223.581L196.924 217.202L175.399 210.504L197.314 215.79L182.021 199.227L198.357 214.762L193.395 192.771Z" fill="white"/>
<circle cx="199.802" cy="217.212" r="13.4745" transform="rotate(0.422522 199.802 217.212)" fill="white"/>
<path d="M138.983 154.251C142.669 154.218 145.033 154.191 146.493 154.169C146.085 154.095 151.41 154.098 146.493 154.169C146.727 154.212 148.826 154.28 155.756 154.375L187.311 150.243C200.019 152.836 207.064 154.819 219.497 159.21C221.128 158.684 228.406 169.436 237.517 181.895C238.448 183.284 238.663 187.911 238.848 198.637C238.758 200.157 237.683 199.649 234.015 196.419L230.242 181.841C223.377 176.322 218.332 172.558 216.508 169.858C209.571 167.487 205.454 166.329 197.632 164.626C195.14 165.031 193.455 165.645 189.361 168.202C191.728 172.428 195.403 174.875 200.677 179.198L211.55 184.613C213.335 186.259 213.371 187.364 212.726 189.472C211.842 191.628 211.07 192.036 209.553 192.358C191.801 187.401 181.278 184.241 161.408 177.211L138.983 181.841L138.983 154.251Z" fill="#008080"/>
<path d="M261.204 243.961C257.518 243.994 255.154 244.021 253.694 244.043C254.103 244.117 248.778 244.114 253.694 244.043C253.461 244 251.362 243.932 244.431 243.837L212.876 247.969C200.168 245.376 193.124 243.393 180.691 239.002C179.059 239.528 171.781 228.776 162.671 216.317C161.739 214.928 161.525 210.301 161.339 199.575C161.43 198.055 162.505 198.562 166.173 201.793L169.945 216.371C176.81 221.89 181.855 225.654 183.679 228.354C190.617 230.725 194.734 231.883 202.555 233.586C205.047 233.181 206.733 232.567 210.826 230.01C208.46 225.784 204.785 223.336 199.51 219.014L188.638 213.599C186.853 211.953 186.816 210.847 187.461 208.74C188.345 206.584 189.118 206.176 190.635 205.854C208.386 210.811 218.909 213.971 238.78 221.001L261.204 216.371L261.204 243.961Z" fill="#008080"/>
<path d="M121.147 175.703C122.785 170.913 120.231 165.701 115.44 164.063C110.65 162.424 105.439 164.979 103.8 169.769C102.162 174.559 104.717 179.771 109.507 181.409C114.297 183.048 119.508 180.493 121.147 175.703ZM81.1733 162.029C82.8119 157.239 80.257 152.028 75.4669 150.389C70.6768 148.751 65.4653 151.306 63.8268 156.096C62.1883 160.886 64.7431 166.097 69.5332 167.736C74.3234 169.374 79.5348 166.82 81.1733 162.029ZM113.03 171.11L73.0563 157.436L71.9438 160.689L111.917 174.362L113.03 171.11Z" fill="#FFCB60"/>
<path d="M331.14 207.758C326.209 208.905 321.282 205.838 320.135 200.907C318.987 195.976 322.055 191.049 326.986 189.902C331.917 188.754 336.844 191.822 337.991 196.753C339.138 201.683 336.071 206.611 331.14 207.758ZM313.327 131.195C308.397 132.343 303.469 129.275 302.322 124.344C301.175 119.413 304.242 114.486 309.173 113.339C314.104 112.192 319.031 115.259 320.179 120.19C321.326 125.121 318.258 130.048 313.327 131.195ZM327.344 198.852C327.103 180.254 325.946 166.957 323.243 155.508C320.547 144.085 316.293 134.425 309.762 123.127L312.738 121.407C319.384 132.904 323.794 142.88 326.589 154.718C329.377 166.528 330.539 180.115 330.781 198.807L327.344 198.852Z" fill="#008080"/>
<path d="M149.312 132.511C152.767 128.811 152.569 123.01 148.869 119.555C145.169 116.1 139.368 116.298 135.913 119.998C132.457 123.698 132.656 129.498 136.356 132.954C140.056 136.409 145.856 136.211 149.312 132.511ZM118.435 103.676C121.891 99.9755 121.692 94.1749 117.992 90.7195C114.292 87.2641 108.492 87.4623 105.036 91.1624C101.581 94.8624 101.779 100.663 105.479 104.118C109.179 107.574 114.98 107.376 118.435 103.676ZM143.785 124.998L112.909 96.1628L110.563 98.6751L141.439 127.511L143.785 124.998Z" fill="#FFCB60"/>
<path d="M149.312 263.662C152.767 267.362 152.569 273.163 148.869 276.618C145.169 280.074 139.368 279.876 135.913 276.176C132.457 272.476 132.656 266.675 136.356 263.219C140.056 259.764 145.856 259.962 149.312 263.662ZM112.909 300.011C112.215 300.658 111.127 300.621 110.479 299.928C109.832 299.234 109.869 298.146 110.563 297.498L112.909 300.011ZM143.785 271.175L112.909 300.011L110.563 297.498L141.439 268.663L143.785 271.175Z" fill="#FFCB60"/>
<path d="M250.349 263.662C246.894 267.362 247.092 273.163 250.792 276.618C254.492 280.074 260.293 279.876 263.748 276.176C267.204 272.476 267.005 266.675 263.305 263.219C259.605 259.764 253.805 259.962 250.349 263.662ZM281.226 292.498C277.771 296.198 277.969 301.998 281.669 305.454C285.369 308.909 291.17 308.711 294.625 305.011C298.08 301.311 297.882 295.51 294.182 292.055C290.482 288.6 284.681 288.798 281.226 292.498ZM255.876 271.175L286.752 300.011L289.099 297.498L258.222 268.663L255.876 271.175Z" fill="#FFCB60"/>
<path d="M199.828 281.377C194.765 281.396 190.676 285.515 190.695 290.578C190.713 295.64 194.832 299.729 199.895 299.711C204.958 299.692 209.047 295.573 209.028 290.51C209.009 285.448 204.89 281.359 199.828 281.377ZM199.967 319.271C194.904 319.289 190.815 323.408 190.834 328.471C190.852 333.534 194.971 337.623 200.034 337.604C205.097 337.585 209.186 333.466 209.167 328.404C209.148 323.341 205.029 319.252 199.967 319.271ZM198.143 290.55L198.282 328.444L201.719 328.431L201.58 290.538L198.143 290.55Z" fill="#FFCB60"/>
<path d="M199.966 60.8334C194.904 60.852 190.815 64.9711 190.833 70.0336C190.852 75.0962 194.971 79.1852 200.034 79.1666C205.096 79.148 209.185 75.0289 209.167 69.9664C209.148 64.9038 205.029 60.8148 199.966 60.8334ZM200.105 98.7268C195.043 98.7454 190.954 102.865 190.972 107.927C190.991 112.99 195.11 117.079 200.173 117.06C205.235 117.041 209.324 112.922 209.306 107.86C209.287 102.797 205.168 98.7083 200.105 98.7268ZM198.281 70.0063L198.42 107.9L201.858 107.887L201.719 69.9937L198.281 70.0063Z" fill="#FFCB60"/>
<path d="M250.662 132.511C247.206 128.811 247.405 123.01 251.105 119.555C254.805 116.1 260.605 116.298 264.061 119.998C267.516 123.698 267.318 129.498 263.618 132.954C259.918 136.409 254.117 136.211 250.662 132.511ZM281.539 103.676C278.083 99.9755 278.281 94.1749 281.981 90.7195C285.681 87.2641 291.482 87.4623 294.937 91.1624C298.393 94.8624 298.195 100.663 294.495 104.118C290.795 107.574 284.994 107.376 281.539 103.676ZM256.188 124.998L287.065 96.1628L289.411 98.6751L258.534 127.511L256.188 124.998Z" fill="#FFCB60"/>
<path d="M334.897 156.096C336.535 160.886 333.981 166.097 329.19 167.736C324.4 169.374 319.189 166.819 317.55 162.029C315.912 157.239 318.467 152.028 323.257 150.389C328.047 148.751 333.258 151.306 334.897 156.096ZM294.923 169.769C296.562 174.559 294.007 179.771 289.217 181.409C284.427 183.048 279.215 180.493 277.577 175.703C275.938 170.913 278.493 165.701 283.283 164.063C288.073 162.424 293.285 164.979 294.923 169.769ZM326.78 160.689L286.806 174.362L285.694 171.11L325.667 157.436L326.78 160.689Z" fill="#FFCB60"/>
<path d="M121.147 222.346C122.785 227.136 120.231 232.347 115.44 233.986C110.65 235.624 105.439 233.069 103.8 228.279C102.162 223.489 104.717 218.278 109.507 216.639C114.297 215.001 119.508 217.556 121.147 222.346ZM81.1733 236.019C82.8119 240.809 80.257 246.021 75.4669 247.659C70.6768 249.298 65.4653 246.743 63.8268 241.953C62.1883 237.163 64.7431 231.951 69.5332 230.313C74.3234 228.674 79.5348 231.229 81.1733 236.019ZM113.03 226.939L73.0563 240.612L71.9438 237.36L111.917 223.686L113.03 226.939Z" fill="#FFCB60"/>
<path d="M335.522 241.953C337.16 237.163 334.606 231.951 329.815 230.313C325.025 228.674 319.814 231.229 318.175 236.019C316.537 240.809 319.092 246.021 323.882 247.659C328.672 249.298 333.883 246.743 335.522 241.953ZM295.548 228.279C297.187 223.489 294.632 218.278 289.842 216.639C285.052 215.001 279.84 217.556 278.202 222.346C276.563 227.136 279.118 232.347 283.908 233.986C288.698 235.624 293.91 233.07 295.548 228.279ZM327.405 237.36L287.431 223.686L286.319 226.939L326.292 240.612L327.405 237.36Z" fill="#FFCB60"/>
<path d="M73.4224 334.804C76.8938 338.489 82.6952 338.662 86.3802 335.191C90.0653 331.72 90.2385 325.918 86.7671 322.233C83.2957 318.548 77.4943 318.375 73.8092 321.846C70.1242 325.318 69.951 331.119 73.4224 334.804ZM105.109 304.955C108.58 308.64 114.382 308.813 118.067 305.342C121.752 301.87 121.925 296.069 118.454 292.384C114.982 288.699 109.181 288.525 105.496 291.997C101.811 295.468 101.637 301.27 105.109 304.955ZM81.2733 329.77L112.96 299.92L110.603 297.418L78.9162 327.267L81.2733 329.77Z" fill="#003333"/>
<path d="M38.3133 118.038C42.3019 121.156 48.0628 120.45 51.1807 116.462C54.2985 112.473 53.5927 106.712 49.604 103.594C45.6154 100.477 39.8545 101.182 36.7367 105.171C33.6188 109.16 34.3247 114.921 38.3133 118.038ZM77.7924 70.972C81.781 74.0898 87.542 73.384 90.6598 69.3954C93.7777 65.4067 93.0718 59.6458 89.0832 56.528C85.0946 53.4101 79.3336 54.116 76.2158 58.1046C73.0979 62.0932 73.8038 67.8541 77.7924 70.972ZM45.5192 111.537C54.8531 91.3175 66.8146 78.9488 84.4974 65.1032L82.3782 62.3967C64.4456 76.4379 52.0405 89.2088 42.3982 110.096L45.5192 111.537Z" fill="#003333"/>
<path d="M227.566 20.1714C225.503 24.7948 227.579 30.2149 232.202 32.2775C236.826 34.3402 242.246 32.2644 244.309 27.6411C246.371 23.0177 244.295 17.5976 239.672 15.5349C235.049 13.4722 229.629 15.5481 227.566 20.1714ZM283.322 41.9478C281.259 46.5711 283.335 51.9912 287.958 54.0539C292.581 56.1166 298.002 54.0407 300.064 49.4174C302.127 44.794 300.051 39.3739 295.428 37.3113C290.804 35.2486 285.384 37.3244 283.322 41.9478ZM235.615 25.5945C257.812 29.8324 273.15 33.3914 290.636 47.0375L292.75 44.3276C274.576 30.1444 258.535 26.4709 236.26 22.218L235.615 25.5945Z" fill="#003333"/>
<path d="M379.554 214.047C374.799 212.309 369.536 214.754 367.797 219.508C366.059 224.263 368.504 229.527 373.258 231.265C378.013 233.004 383.277 230.559 385.016 225.804C386.754 221.049 384.309 215.785 379.554 214.047ZM358.46 277.641C353.706 275.902 348.442 278.347 346.703 283.102C344.965 287.857 347.41 293.121 352.165 294.859C356.92 296.598 362.183 294.152 363.922 289.398C365.66 284.643 363.215 279.379 358.46 277.641ZM374.7 222.451C372.016 244.797 366.322 266.86 353.888 285.289L356.737 287.211C369.603 268.143 375.397 245.468 378.113 222.861L374.7 222.451Z" fill="#003333"/>
</svg>
