<svg width="487" height="91" viewBox="0 0 487 91" fill="none" xmlns="http://www.w3.org/2000/svg">
<path d="M5.90125 62V17.135H27.821C33.4612 17.135 37.6913 18.2032 40.5114 20.3396C43.3742 22.4761 44.8056 25.2962 44.8056 28.7999C44.8056 31.15 44.2288 33.2009 43.0751 34.9528C41.9214 36.662 40.3405 37.9865 38.3322 38.9266C36.324 39.8666 34.0167 40.3366 31.4102 40.3366L32.628 37.7088C35.4481 37.7088 37.9477 38.1788 40.1268 39.1188C42.306 40.0161 43.9938 41.3621 45.1902 43.1567C46.4293 44.9513 47.0489 47.1518 47.0489 49.7583C47.0489 53.6038 45.532 56.6162 42.4983 58.7954C39.4645 60.9318 34.9994 62 29.1029 62H5.90125ZM16.2202 54.1807H28.3338C31.0257 54.1807 33.0553 53.7534 34.4226 52.8988C35.8326 52.0015 36.5376 50.5915 36.5376 48.6687C36.5376 46.7886 35.8326 45.3999 34.4226 44.5026C33.0553 43.5626 31.0257 43.0926 28.3338 43.0926H15.4511V35.5296H26.5392C29.0601 35.5296 30.9829 35.1024 32.3075 34.2478C33.6748 33.3505 34.3585 32.0045 34.3585 30.2099C34.3585 28.4581 33.6748 27.1548 32.3075 26.3003C30.9829 25.403 29.0601 24.9543 26.5392 24.9543H16.2202V54.1807ZM71.3175 62.5127C67.3865 62.5127 63.9255 61.7436 60.9345 60.2054C57.9862 58.6672 55.7002 56.5735 54.0766 53.9243C52.4529 51.2324 51.641 48.1773 51.641 44.759C51.641 41.298 52.4315 38.2429 54.0125 35.5937C55.6361 32.9018 57.8367 30.8081 60.614 29.3126C63.3914 27.7744 66.5319 27.0053 70.0357 27.0053C73.4112 27.0053 76.445 27.7317 79.1369 29.1845C81.8715 30.5945 84.0293 32.6455 85.6102 35.3374C87.1912 37.9865 87.9817 41.1698 87.9817 44.8872C87.9817 45.2718 87.9603 45.7204 87.9176 46.2332C87.8749 46.7032 87.8321 47.1518 87.7894 47.5791H59.7808V41.7467H82.5338L78.6882 43.4772C78.6882 41.6826 78.325 40.123 77.5986 38.7984C76.8723 37.4738 75.8681 36.4483 74.5863 35.7219C73.3044 34.9528 71.8089 34.5683 70.0998 34.5683C68.3906 34.5683 66.8738 34.9528 65.5492 35.7219C64.2673 36.4483 63.2632 37.4952 62.5368 38.8625C61.8104 40.1871 61.4472 41.768 61.4472 43.6053V45.1436C61.4472 47.0236 61.8532 48.69 62.665 50.1428C63.5196 51.5529 64.6946 52.6424 66.1901 53.4116C67.7283 54.1379 69.5229 54.5011 71.5739 54.5011C73.4112 54.5011 75.0136 54.2234 76.3809 53.6679C77.7909 53.1125 79.0728 52.2792 80.2264 51.1683L85.5462 56.9367C83.9652 58.7313 81.9783 60.1199 79.5855 61.1027C77.1927 62.0427 74.4367 62.5127 71.3175 62.5127ZM115.597 27.0053C118.331 27.0053 120.767 27.5608 122.903 28.6717C125.082 29.7399 126.792 31.4063 128.031 33.671C129.27 35.8928 129.889 38.7557 129.889 42.2594V62H119.891V43.7976C119.891 41.0203 119.271 38.9693 118.032 37.6447C116.836 36.3201 115.127 35.6578 112.905 35.6578C111.324 35.6578 109.892 35.9997 108.611 36.6833C107.371 37.3242 106.389 38.3284 105.662 39.6957C104.979 41.063 104.637 42.8149 104.637 44.9513V62H94.6383V27.518H104.188V37.0679L102.394 34.1837C103.633 31.8764 105.406 30.1031 107.713 28.864C110.021 27.6249 112.648 27.0053 115.597 27.0053ZM156.316 62.5127C152.385 62.5127 148.924 61.7436 145.933 60.2054C142.984 58.6672 140.698 56.5735 139.075 53.9243C137.451 51.2324 136.639 48.1773 136.639 44.759C136.639 41.298 137.43 38.2429 139.011 35.5937C140.634 32.9018 142.835 30.8081 145.612 29.3126C148.39 27.7744 151.53 27.0053 155.034 27.0053C158.409 27.0053 161.443 27.7317 164.135 29.1845C166.87 30.5945 169.027 32.6455 170.608 35.3374C172.189 37.9865 172.98 41.1698 172.98 44.8872C172.98 45.2718 172.958 45.7204 172.916 46.2332C172.873 46.7032 172.83 47.1518 172.788 47.5791H144.779V41.7467H167.532L163.686 43.4772C163.686 41.6826 163.323 40.123 162.597 38.7984C161.87 37.4738 160.866 36.4483 159.584 35.7219C158.303 34.9528 156.807 34.5683 155.098 34.5683C153.389 34.5683 151.872 34.9528 150.547 35.7219C149.265 36.4483 148.261 37.4952 147.535 38.8625C146.809 40.1871 146.445 41.768 146.445 43.6053V45.1436C146.445 47.0236 146.851 48.69 147.663 50.1428C148.518 51.5529 149.693 52.6424 151.188 53.4116C152.726 54.1379 154.521 54.5011 156.572 54.5011C158.409 54.5011 160.012 54.2234 161.379 53.6679C162.789 53.1125 164.071 52.2792 165.225 51.1683L170.544 56.9367C168.963 58.7313 166.976 60.1199 164.584 61.1027C162.191 62.0427 159.435 62.5127 156.316 62.5127ZM180.854 62V26.7489C180.854 22.8606 182.008 19.7628 184.315 17.4555C186.623 15.1054 189.913 13.9303 194.186 13.9303C195.638 13.9303 197.027 14.0799 198.352 14.379C199.719 14.6781 200.873 15.1481 201.813 15.789L199.185 23.0315C198.629 22.647 198.01 22.3479 197.326 22.1342C196.642 21.9206 195.916 21.8138 195.147 21.8138C193.694 21.8138 192.562 22.2411 191.75 23.0956C190.981 23.9075 190.596 25.1466 190.596 26.813V30.0177L190.853 34.3119V62H180.854ZM175.535 35.9783V28.2872H199.441V35.9783H175.535ZM224.947 62V55.2702L224.306 53.7961V41.7467C224.306 39.6102 223.644 37.9438 222.319 36.7474C221.037 35.551 219.051 34.9528 216.359 34.9528C214.521 34.9528 212.705 35.2519 210.911 35.8501C209.159 36.4056 207.663 37.1747 206.424 38.1575L202.835 31.1713C204.715 29.8467 206.98 28.8213 209.629 28.0949C212.278 27.3685 214.97 27.0053 217.705 27.0053C222.96 27.0053 227.041 28.2444 229.946 30.7227C232.852 33.2009 234.305 37.0679 234.305 42.3235V62H224.947ZM214.436 62.5127C211.744 62.5127 209.437 62.0641 207.514 61.1668C205.591 60.2268 204.117 58.9663 203.091 57.3853C202.066 55.8044 201.553 54.0311 201.553 52.0656C201.553 50.0146 202.045 48.22 203.027 46.6818C204.053 45.1436 205.655 43.9472 207.834 43.0926C210.014 42.1953 212.855 41.7467 216.359 41.7467H225.524V47.5791H217.448C215.098 47.5791 213.475 47.9637 212.577 48.7328C211.723 49.5019 211.295 50.4633 211.295 51.617C211.295 52.8988 211.787 53.9243 212.769 54.6934C213.795 55.4198 215.184 55.783 216.936 55.783C218.602 55.783 220.097 55.3984 221.422 54.6293C222.747 53.8175 223.708 52.6424 224.306 51.1042L225.844 55.7189C225.118 57.9408 223.793 59.6286 221.871 60.7822C219.948 61.9359 217.47 62.5127 214.436 62.5127ZM260.268 62.5127C256.551 62.5127 253.239 61.765 250.334 60.2695C247.428 58.7313 245.142 56.6162 243.476 53.9243C241.852 51.2324 241.04 48.1773 241.04 44.759C241.04 41.298 241.852 38.2429 243.476 35.5937C245.142 32.9018 247.428 30.8081 250.334 29.3126C253.239 27.7744 256.551 27.0053 260.268 27.0053C263.9 27.0053 267.062 27.7744 269.754 29.3126C272.446 30.8081 274.433 32.9659 275.715 35.786L267.959 39.9521C267.062 38.3284 265.93 37.132 264.563 36.3629C263.238 35.5937 261.785 35.2092 260.204 35.2092C258.495 35.2092 256.957 35.5937 255.59 36.3629C254.222 37.132 253.133 38.2215 252.321 39.6316C251.552 41.0416 251.167 42.7508 251.167 44.759C251.167 46.7673 251.552 48.4764 252.321 49.8864C253.133 51.2965 254.222 52.3861 255.59 53.1552C256.957 53.9243 258.495 54.3089 260.204 54.3089C261.785 54.3089 263.238 53.9457 264.563 53.2193C265.93 52.4502 267.062 51.2324 267.959 49.566L275.715 53.7961C274.433 56.5735 272.446 58.7313 269.754 60.2695C267.062 61.765 263.9 62.5127 260.268 62.5127ZM296.073 62.5127C292.013 62.5127 288.852 61.4873 286.587 59.4363C284.322 57.3426 283.19 54.2448 283.19 50.1428V19.891H293.189V50.0146C293.189 51.4674 293.573 52.5997 294.342 53.4116C295.111 54.1807 296.158 54.5652 297.483 54.5652C299.064 54.5652 300.41 54.1379 301.521 53.2834L304.212 60.3336C303.187 61.06 301.948 61.6154 300.495 62C299.085 62.3418 297.611 62.5127 296.073 62.5127ZM277.87 35.9783V28.2872H301.777V35.9783H277.87ZM325.169 62.5127C321.494 62.5127 318.225 61.7436 315.363 60.2054C312.543 58.6672 310.299 56.5735 308.633 53.9243C307.009 51.2324 306.197 48.1773 306.197 44.759C306.197 41.298 307.009 38.2429 308.633 35.5937C310.299 32.9018 312.543 30.8081 315.363 29.3126C318.225 27.7744 321.494 27.0053 325.169 27.0053C328.801 27.0053 332.048 27.7744 334.911 29.3126C337.774 30.8081 340.017 32.8805 341.641 35.5296C343.264 38.1788 344.076 41.2553 344.076 44.759C344.076 48.1773 343.264 51.2324 341.641 53.9243C340.017 56.5735 337.774 58.6672 334.911 60.2054C332.048 61.7436 328.801 62.5127 325.169 62.5127ZM325.169 54.3089C326.835 54.3089 328.331 53.9243 329.655 53.1552C330.98 52.3861 332.027 51.2965 332.796 49.8864C333.565 48.4337 333.95 46.7245 333.95 44.759C333.95 42.7508 333.565 41.0416 332.796 39.6316C332.027 38.2215 330.98 37.132 329.655 36.3629C328.331 35.5937 326.835 35.2092 325.169 35.2092C323.502 35.2092 322.007 35.5937 320.682 36.3629C319.358 37.132 318.29 38.2215 317.478 39.6316C316.709 41.0416 316.324 42.7508 316.324 44.759C316.324 46.7245 316.709 48.4337 317.478 49.8864C318.29 51.2965 319.358 52.3861 320.682 53.1552C322.007 53.9243 323.502 54.3089 325.169 54.3089ZM350.759 62V27.518H360.309V37.2602L358.963 34.4401C359.989 32.0045 361.634 30.1672 363.898 28.9281C366.163 27.6462 368.919 27.0053 372.166 27.0053V36.2347C371.739 36.1919 371.355 36.1706 371.013 36.1706C370.671 36.1278 370.308 36.1065 369.923 36.1065C367.189 36.1065 364.967 36.897 363.258 38.4779C361.591 40.0161 360.758 42.4303 360.758 45.7204V62H350.759ZM392.911 62.5127C390.048 62.5127 387.484 61.9573 385.22 60.8463C382.998 59.7354 381.267 58.0476 380.028 55.783C378.789 53.4756 378.17 50.5487 378.17 47.0023V27.518H388.168V45.5281C388.168 48.3909 388.766 50.506 389.963 51.8733C391.202 53.1979 392.932 53.8602 395.154 53.8602C396.692 53.8602 398.06 53.5397 399.256 52.8988C400.453 52.2152 401.393 51.1897 402.076 49.8224C402.76 48.4123 403.102 46.6604 403.102 44.5667V27.518H413.1V62H403.614V52.5143L405.345 55.2702C404.191 57.663 402.482 59.479 400.218 60.7181C397.996 61.9145 395.56 62.5127 392.911 62.5127ZM466.523 27.0053C469.258 27.0053 471.672 27.5608 473.766 28.6717C475.902 29.7399 477.568 31.4063 478.765 33.671C480.004 35.8928 480.624 38.7557 480.624 42.2594V62H470.625V43.7976C470.625 41.0203 470.048 38.9693 468.895 37.6447C467.741 36.3201 466.117 35.6578 464.024 35.6578C462.571 35.6578 461.268 35.9997 460.114 36.6833C458.96 37.3242 458.063 38.307 457.422 39.6316C456.781 40.9562 456.461 42.644 456.461 44.6949V62H446.462V43.7976C446.462 41.0203 445.885 38.9693 444.732 37.6447C443.621 36.3201 442.018 35.6578 439.925 35.6578C438.472 35.6578 437.169 35.9997 436.015 36.6833C434.861 37.3242 433.964 38.307 433.323 39.6316C432.682 40.9562 432.362 42.644 432.362 44.6949V62H422.363V27.518H431.913V36.9397L430.118 34.1837C431.315 31.8336 433.003 30.0604 435.182 28.864C437.404 27.6249 439.925 27.0053 442.745 27.0053C445.907 27.0053 448.663 27.8171 451.013 29.4408C453.405 31.0218 454.986 33.4573 455.756 36.7474L452.23 35.786C453.384 33.0941 455.221 30.9577 457.742 29.3767C460.306 27.7958 463.233 27.0053 466.523 27.0053Z" fill="#003333"/>
<path d="M126.676 85.1208C125.41 85.1208 124.233 84.9125 123.143 84.4959C122.069 84.0632 121.132 83.4624 120.331 82.6933C119.546 81.9081 118.929 81.0028 118.48 79.9773C118.048 78.9358 117.831 77.7982 117.831 76.5644C117.831 75.3306 118.048 74.2009 118.48 73.1755C118.929 72.134 119.546 71.2286 120.331 70.4595C121.132 69.6744 122.069 69.0735 123.143 68.6569C124.217 68.2243 125.394 68.008 126.676 68.008C127.942 68.008 129.112 68.2243 130.185 68.6569C131.259 69.0735 132.188 69.6664 132.973 70.4355C133.774 71.2046 134.391 72.1099 134.824 73.1514C135.273 74.1929 135.497 75.3306 135.497 76.5644C135.497 77.7982 135.273 78.9358 134.824 79.9773C134.391 81.0188 133.774 81.9241 132.973 82.6933C132.188 83.4624 131.259 84.0632 130.185 84.4959C129.112 84.9125 127.942 85.1208 126.676 85.1208ZM126.676 83.5345C127.686 83.5345 128.615 83.3662 129.464 83.0297C130.329 82.6772 131.075 82.1885 131.699 81.5636C132.34 80.9227 132.837 80.1856 133.19 79.3524C133.542 78.5032 133.718 77.5738 133.718 76.5644C133.718 75.5549 133.542 74.6336 133.19 73.8004C132.837 72.9511 132.34 72.2141 131.699 71.5892C131.075 70.9482 130.329 70.4595 129.464 70.123C128.615 69.7705 127.686 69.5943 126.676 69.5943C125.667 69.5943 124.729 69.7705 123.864 70.123C122.999 70.4595 122.246 70.9482 121.605 71.5892C120.98 72.2141 120.483 72.9511 120.115 73.8004C119.762 74.6336 119.586 75.5549 119.586 76.5644C119.586 77.5578 119.762 78.4791 120.115 79.3284C120.483 80.1776 120.98 80.9227 121.605 81.5636C122.246 82.1885 122.999 82.6772 123.864 83.0297C124.729 83.3662 125.667 83.5345 126.676 83.5345ZM139.123 84.9766V72.3583H140.757V75.7953L140.589 75.1944C140.942 74.233 141.535 73.5039 142.368 73.0072C143.201 72.4945 144.234 72.2381 145.468 72.2381V73.8965C145.404 73.8965 145.34 73.8965 145.276 73.8965C145.212 73.8805 145.148 73.8725 145.084 73.8725C143.754 73.8725 142.712 74.2811 141.959 75.0982C141.206 75.8994 140.829 77.0451 140.829 78.5352V84.9766H139.123ZM153.848 89.7595C152.695 89.7595 151.589 89.5912 150.532 89.2548C149.474 88.9183 148.617 88.4376 147.96 87.8127L148.825 86.5148C149.418 87.0436 150.147 87.4602 151.012 87.7646C151.894 88.0851 152.823 88.2453 153.8 88.2453C155.403 88.2453 156.58 87.8688 157.334 87.1157C158.087 86.3786 158.463 85.2249 158.463 83.6546V80.5061L158.704 78.343L158.535 76.1798V72.3583H160.17V83.4383C160.17 85.6175 159.633 87.2118 158.559 88.2213C157.502 89.2467 155.931 89.7595 153.848 89.7595ZM153.536 84.4959C152.334 84.4959 151.253 84.2395 150.291 83.7268C149.33 83.198 148.569 82.4689 148.008 81.5396C147.463 80.6102 147.191 79.5447 147.191 78.343C147.191 77.1412 147.463 76.0837 148.008 75.1704C148.569 74.241 149.33 73.52 150.291 73.0072C151.253 72.4945 152.334 72.2381 153.536 72.2381C154.658 72.2381 155.667 72.4704 156.564 72.9351C157.462 73.3998 158.175 74.0888 158.704 75.0021C159.232 75.9154 159.497 77.029 159.497 78.343C159.497 79.6569 159.232 80.7705 158.704 81.6838C158.175 82.5971 157.462 83.2941 156.564 83.7748C155.667 84.2555 154.658 84.4959 153.536 84.4959ZM153.704 82.9817C154.634 82.9817 155.459 82.7894 156.18 82.4048C156.901 82.0043 157.47 81.4595 157.886 80.7705C158.303 80.0654 158.511 79.2563 158.511 78.343C158.511 77.4296 158.303 76.6285 157.886 75.9395C157.47 75.2505 156.901 74.7137 156.18 74.3291C155.459 73.9286 154.634 73.7283 153.704 73.7283C152.791 73.7283 151.966 73.9286 151.229 74.3291C150.508 74.7137 149.939 75.2505 149.522 75.9395C149.122 76.6285 148.921 77.4296 148.921 78.343C148.921 79.2563 149.122 80.0654 149.522 80.7705C149.939 81.4595 150.508 82.0043 151.229 82.4048C151.966 82.7894 152.791 82.9817 153.704 82.9817ZM172.826 84.9766V82.1885L172.754 81.7319V77.0691C172.754 75.9955 172.449 75.1704 171.84 74.5935C171.247 74.0167 170.358 73.7283 169.172 73.7283C168.355 73.7283 167.578 73.8645 166.841 74.1369C166.104 74.4093 165.479 74.7698 164.966 75.2184L164.197 73.9446C164.838 73.3998 165.607 72.9832 166.505 72.6948C167.402 72.3903 168.347 72.2381 169.341 72.2381C170.975 72.2381 172.233 72.6467 173.114 73.4639C174.011 74.265 174.46 75.4908 174.46 77.1412V84.9766H172.826ZM168.475 85.0967C167.53 85.0967 166.705 84.9445 166 84.6401C165.311 84.3196 164.782 83.887 164.413 83.3422C164.045 82.7814 163.861 82.1405 163.861 81.4194C163.861 80.7625 164.013 80.1696 164.317 79.6408C164.638 79.096 165.151 78.6634 165.856 78.343C166.577 78.0065 167.538 77.8382 168.74 77.8382H173.09V79.1121H168.788C167.57 79.1121 166.721 79.3284 166.24 79.761C165.775 80.1936 165.543 80.7304 165.543 81.3713C165.543 82.0924 165.824 82.6692 166.384 83.1018C166.945 83.5345 167.73 83.7508 168.74 83.7508C169.701 83.7508 170.526 83.5345 171.215 83.1018C171.92 82.6532 172.433 82.0123 172.754 81.1791L173.138 82.3568C172.818 83.19 172.257 83.8549 171.456 84.3517C170.671 84.8484 169.677 85.0967 168.475 85.0967ZM185.536 72.2381C186.562 72.2381 187.459 72.4384 188.228 72.839C189.013 73.2235 189.622 73.8164 190.055 74.6176C190.504 75.4187 190.728 76.4282 190.728 77.6459V84.9766H189.021V77.8142C189.021 76.4843 188.685 75.4828 188.012 74.8098C187.355 74.1208 186.426 73.7763 185.224 73.7763C184.327 73.7763 183.541 73.9606 182.868 74.3291C182.212 74.6816 181.699 75.2024 181.33 75.8914C180.978 76.5644 180.801 77.3816 180.801 78.343V84.9766H179.095V72.3583H180.729V75.8193L180.465 75.1704C180.866 74.257 181.506 73.544 182.388 73.0313C183.269 72.5025 184.319 72.2381 185.536 72.2381ZM195.337 84.9766V72.3583H197.044V84.9766H195.337ZM196.203 69.5702C195.85 69.5702 195.554 69.4501 195.313 69.2097C195.073 68.9694 194.953 68.681 194.953 68.3445C194.953 68.008 195.073 67.7276 195.313 67.5032C195.554 67.2629 195.85 67.1427 196.203 67.1427C196.555 67.1427 196.851 67.2549 197.092 67.4792C197.332 67.7035 197.452 67.9839 197.452 68.3204C197.452 68.6729 197.332 68.9694 197.092 69.2097C196.867 69.4501 196.571 69.5702 196.203 69.5702ZM205.181 85.0967C204.139 85.0967 203.154 84.9525 202.225 84.6641C201.295 84.3597 200.566 83.9831 200.037 83.5345L200.807 82.1885C201.319 82.5731 201.976 82.9096 202.777 83.198C203.579 83.4704 204.42 83.6066 205.301 83.6066C206.503 83.6066 207.368 83.4223 207.897 83.0538C208.426 82.6692 208.69 82.1645 208.69 81.5396C208.69 81.0749 208.538 80.7144 208.233 80.458C207.945 80.1856 207.56 79.9853 207.08 79.8571C206.599 79.7129 206.062 79.5928 205.469 79.4966C204.876 79.4005 204.284 79.2883 203.691 79.1601C203.114 79.0319 202.585 78.8477 202.104 78.6073C201.624 78.351 201.231 78.0065 200.927 77.5738C200.638 77.1412 200.494 76.5644 200.494 75.8433C200.494 75.1543 200.686 74.5374 201.071 73.9926C201.455 73.4479 202.016 73.0232 202.753 72.7188C203.506 72.3983 204.42 72.2381 205.493 72.2381C206.31 72.2381 207.128 72.3503 207.945 72.5746C208.762 72.7829 209.435 73.0633 209.964 73.4158L209.219 74.7858C208.658 74.4012 208.057 74.1288 207.416 73.9686C206.775 73.7924 206.134 73.7042 205.493 73.7042C204.356 73.7042 203.514 73.9045 202.97 74.3051C202.441 74.6897 202.177 75.1864 202.177 75.7953C202.177 76.276 202.321 76.6525 202.609 76.9249C202.914 77.1973 203.306 77.4136 203.787 77.5738C204.284 77.718 204.82 77.8382 205.397 77.9344C205.99 78.0305 206.575 78.1507 207.152 78.2949C207.745 78.4231 208.281 78.6073 208.762 78.8477C209.259 79.072 209.651 79.4005 209.94 79.8331C210.244 80.2497 210.396 80.8025 210.396 81.4915C210.396 82.2286 210.188 82.8695 209.772 83.4143C209.371 83.9431 208.778 84.3597 207.993 84.6641C207.224 84.9525 206.286 85.0967 205.181 85.0967ZM221.435 84.9766V82.1885L221.363 81.7319V77.0691C221.363 75.9955 221.059 75.1704 220.45 74.5935C219.857 74.0167 218.968 73.7283 217.782 73.7283C216.965 73.7283 216.188 73.8645 215.45 74.1369C214.713 74.4093 214.089 74.7698 213.576 75.2184L212.807 73.9446C213.448 73.3998 214.217 72.9832 215.114 72.6948C216.011 72.3903 216.957 72.2381 217.95 72.2381C219.584 72.2381 220.842 72.6467 221.724 73.4639C222.621 74.265 223.07 75.4908 223.07 77.1412V84.9766H221.435ZM217.085 85.0967C216.139 85.0967 215.314 84.9445 214.609 84.6401C213.92 84.3196 213.391 83.887 213.023 83.3422C212.654 82.7814 212.47 82.1405 212.47 81.4194C212.47 80.7625 212.622 80.1696 212.927 79.6408C213.247 79.096 213.76 78.6634 214.465 78.343C215.186 78.0065 216.147 77.8382 217.349 77.8382H221.7V79.1121H217.397C216.18 79.1121 215.33 79.3284 214.85 79.761C214.385 80.1936 214.153 80.7304 214.153 81.3713C214.153 82.0924 214.433 82.6692 214.994 83.1018C215.555 83.5345 216.34 83.7508 217.349 83.7508C218.311 83.7508 219.136 83.5345 219.825 83.1018C220.53 82.6532 221.043 82.0123 221.363 81.1791L221.748 82.3568C221.427 83.19 220.866 83.8549 220.065 84.3517C219.28 84.8484 218.287 85.0967 217.085 85.0967ZM231.694 85.0967C230.509 85.0967 229.595 84.7763 228.954 84.1353C228.313 83.4944 227.993 82.5891 227.993 81.4194V69.5702H229.699V81.3233C229.699 82.0603 229.884 82.6292 230.252 83.0297C230.637 83.4303 231.182 83.6306 231.887 83.6306C232.64 83.6306 233.265 83.4143 233.761 82.9817L234.362 84.2074C234.026 84.5119 233.617 84.7362 233.136 84.8804C232.672 85.0246 232.191 85.0967 231.694 85.0967ZM225.734 73.7763V72.3583H233.545V73.7763H225.734ZM237.469 84.9766V72.3583H239.175V84.9766H237.469ZM238.334 69.5702C237.981 69.5702 237.685 69.4501 237.445 69.2097C237.204 68.9694 237.084 68.681 237.084 68.3445C237.084 68.008 237.204 67.7276 237.445 67.5032C237.685 67.2629 237.981 67.1427 238.334 67.1427C238.686 67.1427 238.983 67.2549 239.223 67.4792C239.464 67.7035 239.584 67.9839 239.584 68.3204C239.584 68.6729 239.464 68.9694 239.223 69.2097C238.999 69.4501 238.702 69.5702 238.334 69.5702ZM249.067 85.0967C247.849 85.0967 246.751 84.8243 245.774 84.2796C244.813 83.7187 244.051 82.9576 243.491 81.9962C242.93 81.0188 242.649 79.9052 242.649 78.6554C242.649 77.3896 242.93 76.276 243.491 75.3146C244.051 74.3532 244.813 73.6001 245.774 73.0553C246.735 72.5105 247.833 72.2381 249.067 72.2381C250.317 72.2381 251.422 72.5105 252.384 73.0553C253.361 73.6001 254.122 74.3532 254.667 75.3146C255.228 76.276 255.508 77.3896 255.508 78.6554C255.508 79.9052 255.228 81.0188 254.667 81.9962C254.122 82.9576 253.361 83.7187 252.384 84.2796C251.406 84.8243 250.301 85.0967 249.067 85.0967ZM249.067 83.5825C249.98 83.5825 250.789 83.3823 251.494 82.9817C252.199 82.5651 252.752 81.9882 253.153 81.2512C253.569 80.4981 253.778 79.6328 253.778 78.6554C253.778 77.662 253.569 76.7967 253.153 76.0596C252.752 75.3226 252.199 74.7537 251.494 74.3532C250.789 73.9366 249.988 73.7283 249.091 73.7283C248.193 73.7283 247.392 73.9366 246.687 74.3532C245.982 74.7537 245.421 75.3226 245.005 76.0596C244.588 76.7967 244.38 77.662 244.38 78.6554C244.38 79.6328 244.588 80.4981 245.005 81.2512C245.421 81.9882 245.982 82.5651 246.687 82.9817C247.392 83.3823 248.185 83.5825 249.067 83.5825ZM265.433 72.2381C266.459 72.2381 267.356 72.4384 268.125 72.839C268.91 73.2235 269.519 73.8164 269.952 74.6176C270.401 75.4187 270.625 76.4282 270.625 77.6459V84.9766H268.918V77.8142C268.918 76.4843 268.582 75.4828 267.909 74.8098C267.252 74.1208 266.323 73.7763 265.121 73.7763C264.224 73.7763 263.438 73.9606 262.765 74.3291C262.109 74.6816 261.596 75.2024 261.227 75.8914C260.875 76.5644 260.698 77.3816 260.698 78.343V84.9766H258.992V72.3583H260.626V75.8193L260.362 75.1704C260.763 74.257 261.404 73.544 262.285 73.0313C263.166 72.5025 264.216 72.2381 265.433 72.2381ZM289.432 84.9766V82.1885L289.36 81.7319V77.0691C289.36 75.9955 289.056 75.1704 288.447 74.5935C287.854 74.0167 286.965 73.7283 285.779 73.7283C284.962 73.7283 284.185 73.8645 283.447 74.1369C282.71 74.4093 282.085 74.7698 281.573 75.2184L280.804 73.9446C281.445 73.3998 282.214 72.9832 283.111 72.6948C284.008 72.3903 284.954 72.2381 285.947 72.2381C287.581 72.2381 288.839 72.6467 289.721 73.4639C290.618 74.265 291.066 75.4908 291.066 77.1412V84.9766H289.432ZM285.082 85.0967C284.136 85.0967 283.311 84.9445 282.606 84.6401C281.917 84.3196 281.388 83.887 281.02 83.3422C280.651 82.7814 280.467 82.1405 280.467 81.4194C280.467 80.7625 280.619 80.1696 280.924 79.6408C281.244 79.096 281.757 78.6634 282.462 78.343C283.183 78.0065 284.144 77.8382 285.346 77.8382H289.696V79.1121H285.394C284.176 79.1121 283.327 79.3284 282.847 79.761C282.382 80.1936 282.15 80.7304 282.15 81.3713C282.15 82.0924 282.43 82.6692 282.991 83.1018C283.552 83.5345 284.337 83.7508 285.346 83.7508C286.308 83.7508 287.133 83.5345 287.822 83.1018C288.527 82.6532 289.04 82.0123 289.36 81.1791L289.745 82.3568C289.424 83.19 288.863 83.8549 288.062 84.3517C287.277 84.8484 286.284 85.0967 285.082 85.0967ZM285.875 70.3874L281.981 67.4071H284.265L287.557 70.3874H285.875ZM308.505 85.0967C307.4 85.0967 306.406 84.8484 305.525 84.3517C304.644 83.8389 303.947 83.1018 303.434 82.1405C302.921 81.1791 302.665 80.0174 302.665 78.6554C302.665 77.2774 302.921 76.1157 303.434 75.1704C303.963 74.209 304.668 73.4799 305.549 72.9832C306.43 72.4865 307.416 72.2381 308.505 72.2381C309.707 72.2381 310.781 72.5105 311.726 73.0553C312.687 73.5841 313.44 74.3291 313.985 75.2905C314.53 76.2519 314.802 77.3735 314.802 78.6554C314.802 79.9212 314.53 81.0429 313.985 82.0203C313.44 82.9817 312.687 83.7348 311.726 84.2796C310.781 84.8243 309.707 85.0967 308.505 85.0967ZM301.992 84.9766V67.1427H303.698V76.0837L303.458 78.6314L303.626 81.1791V84.9766H301.992ZM308.385 83.5825C309.282 83.5825 310.084 83.3823 310.789 82.9817C311.494 82.5651 312.054 81.9882 312.471 81.2512C312.888 80.4981 313.096 79.6328 313.096 78.6554C313.096 77.662 312.888 76.7967 312.471 76.0596C312.054 75.3226 311.494 74.7537 310.789 74.3532C310.084 73.9366 309.282 73.7283 308.385 73.7283C307.488 73.7283 306.679 73.9366 305.958 74.3532C305.253 74.7537 304.692 75.3226 304.275 76.0596C303.875 76.7967 303.674 77.662 303.674 78.6554C303.674 79.6328 303.875 80.4981 304.275 81.2512C304.692 81.9882 305.253 82.5651 305.958 82.9817C306.679 83.3823 307.488 83.5825 308.385 83.5825ZM323.497 85.0967C322.423 85.0967 321.486 84.8964 320.685 84.4959C319.883 84.0953 319.258 83.4944 318.81 82.6933C318.377 81.8921 318.161 80.8906 318.161 79.6889V72.3583H319.867V79.4966C319.867 80.8426 320.196 81.86 320.853 82.549C321.526 83.222 322.463 83.5585 323.665 83.5585C324.546 83.5585 325.307 83.3823 325.948 83.0297C326.605 82.6612 327.102 82.1324 327.438 81.4434C327.791 80.7544 327.967 79.9292 327.967 78.9679V72.3583H329.674V84.9766H328.039V81.5155L328.304 82.1405C327.903 83.0698 327.278 83.7989 326.429 84.3276C325.596 84.8404 324.618 85.0967 323.497 85.0967ZM338.419 85.0967C337.233 85.0967 336.32 84.7763 335.679 84.1353C335.038 83.4944 334.718 82.5891 334.718 81.4194V69.5702H336.424V81.3233C336.424 82.0603 336.609 82.6292 336.977 83.0297C337.362 83.4303 337.906 83.6306 338.611 83.6306C339.365 83.6306 339.989 83.4143 340.486 82.9817L341.087 84.2074C340.751 84.5119 340.342 84.7362 339.861 84.8804C339.397 85.0246 338.916 85.0967 338.419 85.0967ZM332.459 73.7763V72.3583H340.27V73.7763H332.459ZM356.925 72.2381C357.951 72.2381 358.848 72.4384 359.617 72.839C360.402 73.2235 361.011 73.8164 361.444 74.6176C361.892 75.4187 362.117 76.4282 362.117 77.6459V84.9766H360.41V77.8142C360.41 76.4843 360.074 75.4828 359.401 74.8098C358.744 74.1208 357.815 73.7763 356.613 73.7763C355.716 73.7763 354.93 73.9606 354.257 74.3291C353.6 74.6816 353.088 75.2024 352.719 75.8914C352.367 76.5644 352.19 77.3816 352.19 78.343V84.9766H350.484V72.3583H352.118V75.8193L351.854 75.1704C352.255 74.257 352.895 73.544 353.777 73.0313C354.658 72.5025 355.708 72.2381 356.925 72.2381ZM371.87 85.0967C370.652 85.0967 369.554 84.8243 368.577 84.2796C367.616 83.7187 366.854 82.9576 366.294 81.9962C365.733 81.0188 365.452 79.9052 365.452 78.6554C365.452 77.3896 365.733 76.276 366.294 75.3146C366.854 74.3532 367.616 73.6001 368.577 73.0553C369.538 72.5105 370.636 72.2381 371.87 72.2381C373.119 72.2381 374.225 72.5105 375.186 73.0553C376.164 73.6001 376.925 74.3532 377.47 75.3146C378.031 76.276 378.311 77.3896 378.311 78.6554C378.311 79.9052 378.031 81.0188 377.47 81.9962C376.925 82.9576 376.164 83.7187 375.186 84.2796C374.209 84.8243 373.103 85.0967 371.87 85.0967ZM371.87 83.5825C372.783 83.5825 373.592 83.3823 374.297 82.9817C375.002 82.5651 375.555 81.9882 375.956 81.2512C376.372 80.4981 376.581 79.6328 376.581 78.6554C376.581 77.662 376.372 76.7967 375.956 76.0596C375.555 75.3226 375.002 74.7537 374.297 74.3532C373.592 73.9366 372.791 73.7283 371.894 73.7283C370.996 73.7283 370.195 73.9366 369.49 74.3532C368.785 74.7537 368.224 75.3226 367.808 76.0596C367.391 76.7967 367.183 77.662 367.183 78.6554C367.183 79.6328 367.391 80.4981 367.808 81.2512C368.224 81.9882 368.785 82.5651 369.49 82.9817C370.195 83.3823 370.988 83.5825 371.87 83.5825ZM388.236 72.2381C389.262 72.2381 390.159 72.4384 390.928 72.839C391.713 73.2235 392.322 73.8164 392.755 74.6176C393.203 75.4187 393.428 76.4282 393.428 77.6459V84.9766H391.721V77.8142C391.721 76.4843 391.385 75.4828 390.712 74.8098C390.055 74.1208 389.126 73.7763 387.924 73.7763C387.027 73.7763 386.241 73.9606 385.568 74.3291C384.911 74.6816 384.399 75.2024 384.03 75.8914C383.678 76.5644 383.501 77.3816 383.501 78.343V84.9766H381.795V72.3583H383.429V75.8193L383.165 75.1704C383.566 74.257 384.206 73.544 385.088 73.0313C385.969 72.5025 387.019 72.2381 388.236 72.2381ZM404.328 84.9766V67.1427H406.034V84.9766H404.328ZM415.998 85.0967C414.924 85.0967 413.987 84.8964 413.186 84.4959C412.385 84.0953 411.76 83.4944 411.311 82.6933C410.878 81.8921 410.662 80.8906 410.662 79.6889V72.3583H412.369V79.4966C412.369 80.8426 412.697 81.86 413.354 82.549C414.027 83.222 414.964 83.5585 416.166 83.5585C417.047 83.5585 417.808 83.3823 418.449 83.0297C419.106 82.6612 419.603 82.1324 419.94 81.4434C420.292 80.7544 420.468 79.9292 420.468 78.9679V72.3583H422.175V84.9766H420.54V81.5155L420.805 82.1405C420.404 83.0698 419.779 83.7989 418.93 84.3276C418.097 84.8404 417.119 85.0967 415.998 85.0967ZM432.17 85.0967C430.92 85.0967 429.799 84.8243 428.805 84.2796C427.828 83.7187 427.059 82.9576 426.498 81.9962C425.937 81.0188 425.657 79.9052 425.657 78.6554C425.657 77.3896 425.937 76.276 426.498 75.3146C427.059 74.3532 427.828 73.6001 428.805 73.0553C429.799 72.5105 430.92 72.2381 432.17 72.2381C433.244 72.2381 434.213 72.4464 435.078 72.863C435.944 73.2796 436.625 73.9045 437.121 74.7377L435.848 75.603C435.415 74.9621 434.878 74.4894 434.237 74.1849C433.596 73.8805 432.899 73.7283 432.146 73.7283C431.249 73.7283 430.44 73.9366 429.719 74.3532C428.998 74.7537 428.429 75.3226 428.012 76.0596C427.596 76.7967 427.387 77.662 427.387 78.6554C427.387 79.6488 427.596 80.5141 428.012 81.2512C428.429 81.9882 428.998 82.5651 429.719 82.9817C430.44 83.3823 431.249 83.5825 432.146 83.5825C432.899 83.5825 433.596 83.4303 434.237 83.1259C434.878 82.8214 435.415 82.3568 435.848 81.7319L437.121 82.5971C436.625 83.4143 435.944 84.0392 435.078 84.4718C434.213 84.8884 433.244 85.0967 432.17 85.0967ZM440.474 84.9766V72.3583H442.108V75.7953L441.94 75.1944C442.292 74.233 442.885 73.5039 443.718 73.0072C444.552 72.4945 445.585 72.2381 446.819 72.2381V73.8965C446.755 73.8965 446.691 73.8965 446.627 73.8965C446.563 73.8805 446.498 73.8725 446.434 73.8725C445.104 73.8725 444.063 74.2811 443.31 75.0982C442.557 75.8994 442.18 77.0451 442.18 78.5352V84.9766H440.474ZM456.901 84.9766V82.1885L456.829 81.7319V77.0691C456.829 75.9955 456.525 75.1704 455.916 74.5935C455.323 74.0167 454.434 73.7283 453.248 73.7283C452.431 73.7283 451.654 73.8645 450.917 74.1369C450.18 74.4093 449.555 74.7698 449.042 75.2184L448.273 73.9446C448.914 73.3998 449.683 72.9832 450.58 72.6948C451.477 72.3903 452.423 72.2381 453.416 72.2381C455.051 72.2381 456.308 72.6467 457.19 73.4639C458.087 74.265 458.536 75.4908 458.536 77.1412V84.9766H456.901ZM452.551 85.0967C451.606 85.0967 450.78 84.9445 450.075 84.6401C449.386 84.3196 448.858 83.887 448.489 83.3422C448.121 82.7814 447.936 82.1405 447.936 81.4194C447.936 80.7625 448.089 80.1696 448.393 79.6408C448.713 79.096 449.226 78.6634 449.931 78.343C450.652 78.0065 451.614 77.8382 452.815 77.8382H457.166V79.1121H452.863C451.646 79.1121 450.796 79.3284 450.316 79.761C449.851 80.1936 449.619 80.7304 449.619 81.3713C449.619 82.0924 449.899 82.6692 450.46 83.1018C451.021 83.5345 451.806 83.7508 452.815 83.7508C453.777 83.7508 454.602 83.5345 455.291 83.1018C455.996 82.6532 456.509 82.0123 456.829 81.1791L457.214 82.3568C456.893 83.19 456.332 83.8549 455.531 84.3517C454.746 84.8484 453.753 85.0967 452.551 85.0967ZM467.16 85.0967C465.975 85.0967 465.061 84.7763 464.42 84.1353C463.78 83.4944 463.459 82.5891 463.459 81.4194V69.5702H465.166V81.3233C465.166 82.0603 465.35 82.6292 465.718 83.0297C466.103 83.4303 466.648 83.6306 467.353 83.6306C468.106 83.6306 468.731 83.4143 469.227 82.9817L469.828 84.2074C469.492 84.5119 469.083 84.7362 468.603 84.8804C468.138 85.0246 467.657 85.0967 467.16 85.0967ZM461.2 73.7763V72.3583H469.011V73.7763H461.2ZM472.935 84.9766V72.3583H474.641V84.9766H472.935ZM473.8 69.5702C473.448 69.5702 473.151 69.4501 472.911 69.2097C472.67 68.9694 472.55 68.681 472.55 68.3445C472.55 68.008 472.67 67.7276 472.911 67.5032C473.151 67.2629 473.448 67.1427 473.8 67.1427C474.153 67.1427 474.449 67.2549 474.689 67.4792C474.93 67.7035 475.05 67.9839 475.05 68.3204C475.05 68.6729 474.93 68.9694 474.689 69.2097C474.465 69.4501 474.169 69.5702 473.8 69.5702ZM479.678 84.9766V70.772C479.678 69.6504 480.006 68.745 480.663 68.056C481.32 67.367 482.266 67.0225 483.499 67.0225C483.98 67.0225 484.445 67.0866 484.893 67.2148C485.342 67.343 485.719 67.5433 486.023 67.8157L485.446 69.0895C485.206 68.8812 484.925 68.729 484.605 68.6329C484.285 68.5207 483.94 68.4646 483.572 68.4646C482.85 68.4646 482.298 68.6649 481.913 69.0655C481.529 69.4661 481.336 70.0589 481.336 70.8441V72.7669L481.384 73.56V84.9766H479.678ZM477.419 73.7763V72.3583H485.23V73.7763H477.419Z" fill="#003333"/>
</svg>
